#!OML:ASF X:\für Bonn\!DataBase\2005_08_11_Bastian_Final\c3d\Bastian.ASF
:FULLY-SPECIFIED
:DEGREES
2351
root 1.34674 19.095 -5.28914 164.494 45.6098 -178.656
lowerback 17.7288 -13.5287 7.39759
upperback 9.1938 -15.1201 3.51535
thorax -0.565783 -6.78408 2.55717
lowerneck -8.88248 11.3187 -2.68779
upperneck -2.69008 15.5301 -1.89047
head 0.541404 7.84436 0.30265
rclavicle -6.36111e-015 -1.43125e-014
rhumerus -218.625 -186.776 135.875
rradius 124.627
rwrist -176.916
rhand -1.40325 0.691881
rfingers 7.12502
rthumb 24.2456 -27.7952
lclavicle -6.36111e-015 -1.43125e-014
lhumerus 0.894329 -30.5908 77.2268
lradius 110.255
lwrist 219.607
lhand -21.6849 20.8501
lfingers 7.12502
lthumb 4.713 50.7777
rfemur -25.1415 -7.81733 33.118
rtibia 50.9763
rfoot 12.4522 2.07746
rtoes -23.0709
lfemur 10.9254 24.3767 -19.2417
ltibia 68.1453
lfoot 28.0256 -5.89193
ltoes -34.053
2352
root 1.3505 19.0871 -5.60355 163.359 46.2424 -179.761
lowerback 17.9562 -13.3872 7.13458
upperback 9.27681 -14.9692 3.27613
thorax -0.593984 -6.715 2.444
lowerneck -9.0232 11.3658 -2.50371
upperneck -2.5006 15.5809 -1.96041
head 0.643772 7.8617 0.277162
rclavicle 3.10104e-014 -2.06736e-014
rhumerus -218.459 -186.564 135.056
rradius 124.916
rwrist -176.041
rhand -2.24639 0.275462
rfingers 7.12502
rthumb 23.4371 -28.3172
lclavicle 3.10104e-014 -2.06736e-014
lhumerus -0.362909 -30.8739 78.6635
lradius 109.218
lwrist 219.482
lhand -21.5049 22.1429
lfingers 7.12502
lthumb 4.88686 52.0666
rfemur -23.7409 -8.66759 32.638
rtibia 49.3575
rfoot 13.0578 0.563116
rtoes -21.1331
lfemur 9.72535 24.829 -18.8188
ltibia 70.6563
lfoot 27.0929 -3.08432
ltoes -30.7678
2353
root 1.35456 19.0702 -5.91663 162.299 46.8864 -180.866
lowerback 18.1107 -13.2425 6.88255
upperback 9.3519 -14.8228 3.06842
thorax -0.58802 -6.64911 2.34409
lowerneck -9.17908 11.4155 -2.27604
upperneck -2.38916 15.6342 -2.20488
head 0.742324 7.88032 0.193587
rclavicle 9.06458e-014 -5.40694e-014
rhumerus -218.132 -186.345 134.143
rradius 125.25
rwrist -175.037
rhand -3.12111 -0.00346521
rfingers 7.12502
rthumb 22.5977 -28.7008
lclavicle 9.06458e-014 -5.40694e-014
lhumerus -1.6895 -30.8879 80.2396
lradius 108.334
lwrist 219.166
lhand -21.775 22.642
lfingers 7.12502
lthumb 4.62601 52.5715
rfemur -22.4515 -9.47117 32.1438
rtibia 47.7979
rfoot 13.7384 -0.839886
rtoes -20.3296
lfemur 8.47075 25.2152 -18.4134
ltibia 72.8289
lfoot 25.9766 0.0194694
ltoes -26.3069
2354
root 1.36175 19.0426 -6.22815 161.231 47.573 -181.99
lowerback 18.2353 -13.0675 6.64553
upperback 9.42782 -14.6415 2.84745
thorax -0.573315 -6.56619 2.21026
lowerneck -9.24736 11.4663 -1.90995
upperneck -2.3631 15.6743 -2.61107
head 0.824703 7.89146 0.034858
rclavicle 4.77083e-014 2.06736e-014
rhumerus -217.744 -186.125 133.148
rradius 125.706
rwrist -173.981
rhand -3.96499 -0.0573752
rfingers 7.12502
rthumb 21.7876 -28.851
lclavicle 4.77083e-014 2.06736e-014
lhumerus -3.02035 -30.7241 81.8337
lradius 107.643
lwrist 218.835
lhand -22.2072 22.5897
lfingers 7.12502
lthumb 4.20865 52.5278
rfemur -21.1797 -10.1889 31.6386
rtibia 46.3063
rfoot 14.4895 -2.09424
rtoes -20.323
lfemur 7.28252 25.5704 -17.9734
ltibia 74.6668
lfoot 24.6388 2.88977
ltoes -21.8675
2355
root 1.37146 18.9992 -6.53815 160.047 48.2686 -183.255
lowerback 18.3561 -12.862 6.30246
upperback 9.50516 -14.4407 2.62859
thorax -0.529946 -6.47825 2.12403
lowerneck -9.29964 11.5078 -1.58406
upperneck -2.39338 15.7067 -3.04873
head 0.887283 7.90043 -0.131248
rclavicle 9.62118e-014 -1.11319e-014
rhumerus -217.278 -185.909 132.147
rradius 126.108
rwrist -173.413
rhand -4.48893 -0.202721
rfingers 7.12502
rthumb 21.2844 -29.054
lclavicle 9.62118e-014 -1.11319e-014
lhumerus -4.33172 -30.3508 83.4586
lradius 107.106
lwrist 218.411
lhand -22.7106 22.197
lfingers 7.12502
lthumb 3.72256 52.1442
rfemur -19.9415 -10.86 31.0347
rtibia 44.9238
rfoot 15.3237 -3.15206
rtoes -20.2335
lfemur 6.18626 25.8762 -17.6039
ltibia 76.1727
lfoot 23.0987 5.4914
ltoes -16.3755
2356
root 1.38309 18.9421 -6.84748 158.818 48.9713 -184.562
lowerback 18.4979 -12.6439 5.93076
upperback 9.56485 -14.2258 2.42442
thorax -0.505885 -6.38541 2.07039
lowerneck -9.38293 11.5683 -1.40165
upperneck -2.39495 15.7767 -3.26613
head 0.934576 7.93134 -0.210343
rclavicle 9.54166e-015 -7.63333e-014
rhumerus -216.786 -185.706 131.147
rradius 126.446
rwrist -173.336
rhand -4.69273 -0.545597
rfingers 7.12502
rthumb 21.0886 -29.4188
lclavicle 9.54166e-015 -7.63333e-014
lhumerus -5.65795 -29.8546 85.0633
lradius 106.648
lwrist 217.888
lhand -23.315 21.513
lfingers 7.12502
lthumb 3.13886 51.4696
rfemur -18.6587 -11.3174 30.3145
rtibia 43.692
rfoot 15.9509 -4.40575
rtoes -19.4042
lfemur 5.11772 26.1384 -17.1932
ltibia 77.3817
lfoot 21.4804 7.27616
ltoes -10.312
